<svg xmlns="http://www.w3.org/2000/svg" viewBox="2.09497 3 19.57 18">
	<path d="M 5.8866 21 C 5.5755 21 5.3399 20.7189 5.3943 20.4126 L 6 17 H 2.5951 C 2.2845 17 2.049 16.7198 2.1026 16.4138 L 2.2776 15.4138 C 2.3195 15.1746 2.5272 15 2.7701 15 H 6.35 L 7.41 9 H 4.0051 C 3.6945 9 3.459 8.7198 3.5126 8.4138 L 3.6876 7.4138 C 3.7295 7.1746 3.9372 7 4.1801 7 H 7.76 L 8.3968 3.4126 C 8.4391 3.1739 8.6466 3 8.8891 3 H 9.8734 C 10.1845 3 10.4201 3.2811 10.3657 3.5874 L 9.76 7 H 15.76 L 16.3968 3.4126 C 16.4391 3.1739 16.6466 3 16.8891 3 H 17.8734 C 18.1845 3 18.4201 3.2811 18.3657 3.5874 L 17.76 7 H 20 C 21.4755 7 21.711 7.2802 21.6574 7.5862 L 21.4824 8.5862 C 21.4406 8.8254 21.2328 9 20.9899 9 H 17.41 L 16.35 15 H 19.7549 C 20.0655 15 20.301 15.2802 20.2474 15.5862 L 20.0724 16.5862 C 20.0306 16.8254 19.8228 17 19.5799 17 H 16 L 15.3632 20.5874 C 15.3209 20.8261 15.1134 21 14.8709 21 H 13.8866 C 13.5755 21 13.3399 20.7189 13.3943 20.4126 L 14 17 H 8 L 7.3632 20.5874 C 7.3209 20.8261 7.1134 21 6.8709 21 H 5.8866 Z M 9.4105 9 L 8.3505 15 H 14.3504 L 15.4104 9 H 9.4105 Z" fill="#c5c5c5"/>
</svg>